# xmcd
#
# Track frame offsets: 
#        150
#        10872
#        26756
#        39884
#        53002
#        66461
#
# Disc length: 1021 seconds
#
# Revision: 0
# Processed by: cddbd v1.4PL0 Copyright (c) Steve Scherf et al.
# Submitted via: ExactAudioCopy v0.90b4
#
DISCID=4503fb06
DTITLE=Juiceboxxx - 2K3: the year of the JUICE
DYEAR=2003
DGENRE=Hip-Hop
TTITLE0=The Declaration of Dopeness
TTITLE1=The Church of Hip Hop
TTITLE2=Fast Food Anthem
TTITLE3=The Two Sides of Juiceboxxx
TTITLE4=High Roller
TTITLE5=Message to the Haters
EXTD=
EXTT0=
EXTT1=
EXTT2=
EXTT3=
EXTT4=
EXTT5=
PLAYORDER=
